# xmcd
#
# Track frame offsets:
#	150
#	24451
#	41039
#	57354
#	82758
#	96459
#	124396
#	152964
#	173828
#	200027
#	222974
#	262733
#	281734
#	302781
#
# Disc length: 4279 seconds
#
# Revision: 1
# Processed by: cddbd v1.5.2PL0 Copyright (c) Steve Scherf et al.
# Submitted via: audiograbber 1.83.01
#
DISCID=ca10b50e
DTITLE=Steve Miller Band - The Album CD1
DYEAR=1900
DGENRE=Blues
TTITLE0=The Joker
TTITLE1=You Cash Ain't Nothin' But Trash
TTITLE2=Going To Mexico
TTITLE3=Mercury Blues
TTITLE4=Going To The Country
TTITLE5=The Window
TTITLE6=Shu Ba Da Du Ma Ma Ma Ma
TTITLE7=Mary Lou
TTITLE8=Gangster Of Love
TTITLE9=Jackson Kent Blues
TTITLE10=Living In The USA
TTITLE11=Space Cowboy
TTITLE12=Fly Like An Eagle
TTITLE13=Wild Mountain Honey
EXTD=
EXTT0=
EXTT1=
EXTT2=
EXTT3=
EXTT4=
EXTT5=
EXTT6=
EXTT7=
EXTT8=
EXTT9=
EXTT10=
EXTT11=
EXTT12=
EXTT13=
PLAYORDER=
